<svg xmlns="http://www.w3.org/2000/svg" viewBox="0 0 428.71 215.4"><defs><style>.cls-1{fill:#b2578e;}.cls-2{fill:#f1eef6;}</style></defs><title>a</title><g id="Layer_2" data-name="Layer 2"><g id="hands"><path class="cls-1" d="M130.55,86.7a34.63,34.63,0,0,0,6.66,1.06c2.26.19,4.53.32,6.79.39s4.52.15,6.78.14,4.5,0,6.74-.12a50.74,50.74,0,0,0,6.58-.73c2.15-.35,4.22-.66,6.33-1l6.56-1a52.2,52.2,0,0,1,7-.62.32.32,0,0,1,.32.32.3.3,0,0,1-.11.24,33,33,0,0,1-5.85,4.08,34.27,34.27,0,0,1-6.61,2.8,24.48,24.48,0,0,1-7.2,1c-2.41,0-4.77-.22-7.1-.39s-4.63-.41-6.93-.7-4.59-.7-6.86-1.14-4.52-1-6.75-1.55a29.27,29.27,0,0,1-6.58-2.32.3.3,0,0,1,.23-.56Z"/><path class="cls-1" d="M193.15,98.1c-3.15,2.43-6.46,4.65-9.78,6.86q-2.52,1.61-5.08,3.17c-1.72,1-3.46,2-5.2,3s-3.48,2-5.22,3a29.4,29.4,0,0,1-5.51,2.36,43.1,43.1,0,0,1-5.89,1.38,28.43,28.43,0,0,1-6.22.33.33.33,0,0,1-.3-.35.38.38,0,0,1,.1-.21,35,35,0,0,1,4.91-3.74q2.52-1.62,5.13-3a33.62,33.62,0,0,1,5.4-2.25c1.86-.6,3.74-1.19,5.56-1.9s3.65-1.44,5.46-2.19,3.65-1.47,5.46-2.24c3.66-1.48,7.24-3.13,10.88-4.73a.3.3,0,0,1,.3.52Z"/><path class="cls-2" d="M61.66,140.47A29.07,29.07,0,0,0,60,144.54c-.5,1.38-.94,2.8-1.39,4.21-.87,2.83-1.68,5.69-2.46,8.55s-1.58,5.72-2.33,8.59-1.53,5.72-2.26,8.59c-.36,1.44-.7,2.87-1,4.31-.14.71-.3,1.45-.43,2.14l-.4,2.18a59.17,59.17,0,0,1-2.43,8.68c-1,2.8-2.08,5.53-3.19,8.26s-2.2,5.45-3.41,8.28a.31.31,0,0,1-.59-.07A34.74,34.74,0,0,1,40,199a76.88,76.88,0,0,1,1.54-8.94c.67-2.9,1.53-5.72,2.44-8.48l.71-2.13c.25-.75.51-1.44.76-2.16L47,173.09q1.48-4.23,3-8.43c1.07-2.79,2.17-5.56,3.29-8.33s2.33-5.51,3.57-8.24a50.92,50.92,0,0,1,4.27-8,.29.29,0,0,1,.41-.07.3.3,0,0,1,.1.38Z"/><path class="cls-2" d="M116,99.44a42.67,42.67,0,0,0-6.48,5.44,76.05,76.05,0,0,1-6.69,5.58c-2.33,1.71-4.72,3.33-7.09,4.94s-4.71,3.16-7,4.8-4.51,3.4-6.66,5.19-4.36,3.49-6.6,5.12c-4.55,3.24-8.9,6.61-13.77,10a.33.33,0,0,1-.44-.08.32.32,0,0,1,0-.3,35.34,35.34,0,0,1,4.48-7.66,49.28,49.28,0,0,1,5.93-6.56,46.52,46.52,0,0,1,7-5.33c2.49-1.53,5-2.94,7.53-4.4s5-2.83,7.56-4.18,5-2.64,7.51-4a73.8,73.8,0,0,0,7.15-4.49,38,38,0,0,1,7.38-4.55.31.31,0,0,1,.4.16A.32.32,0,0,1,116,99.44Z"/><path class="cls-2" d="M50.67,112.45c-3.25,6.46-6.25,13-9.23,19.65L36.89,142c-1.55,3.28-3.11,6.56-4.73,9.83-.8,1.63-1.69,3.3-2.46,4.93l-2.33,4.89a107.61,107.61,0,0,1-5.18,9.49c-1.88,3.07-3.93,6.09-5.9,9.06s-3.87,6-5.58,9.2a.31.31,0,0,1-.42.13.29.29,0,0,1-.17-.27,33.79,33.79,0,0,1,2.4-10.95,105.45,105.45,0,0,1,4.4-10.06c1.6-3.26,3.37-6.45,5.29-9.54l2.9-4.62,1.43-2.27,1.4-2.28c1.83-3.09,3.62-6.23,5.41-9.38l5.42-9.41,5.55-9.37c1.87-3.11,3.78-6.2,5.84-9.21a.3.3,0,0,1,.42-.07A.3.3,0,0,1,50.67,112.45Z"/><path class="cls-1" d="M102.5,88.59c-3.33,1.44-6.64,2.84-9.91,4.33-1.64.73-3.27,1.47-4.89,2.24s-3.25,1.49-4.85,2.27-3.16,1.66-4.71,2.54a29.61,29.61,0,0,1-4.84,2.18,53.1,53.1,0,0,1-5.16,1.52,31.28,31.28,0,0,1-5.58.89.33.33,0,0,1-.35-.31.31.31,0,0,1,.06-.21,23.08,23.08,0,0,1,4-4.16,35,35,0,0,1,4.55-3.17,23.7,23.7,0,0,1,5-2.2c1.76-.53,3.54-1,5.28-1.55s3.49-1.06,5.24-1.55,3.53-.91,5.3-1.33c3.55-.81,7.11-1.54,10.7-2.07a.31.31,0,0,1,.35.26A.32.32,0,0,1,102.5,88.59Z"/><path class="cls-1" d="M.57,131.22a7.41,7.41,0,0,0,3,3.2,10.17,10.17,0,0,0,4.15,1.36,27.52,27.52,0,0,0,9-1,41.66,41.66,0,0,0,8.58-2.9A29.06,29.06,0,0,0,32.62,127a52.43,52.43,0,0,0,6.06-6.74A70.48,70.48,0,0,1,45,113.16c1.12-1.06,2.29-2.19,3.6-3.27a24.08,24.08,0,0,1,2.09-1.55A15.65,15.65,0,0,1,53,107.06a40.23,40.23,0,0,1,9.29-3,.32.32,0,0,1,.37.24.32.32,0,0,1-.1.3c-2.43,2.17-5,4.09-7.29,6.05a19.88,19.88,0,0,0-1.54,1.45c-.48.51-1,1.05-1.43,1.61l-2.92,3.58a91.88,91.88,0,0,1-6.28,7,76.6,76.6,0,0,1-7.44,6.48,33.27,33.27,0,0,1-8.82,4.84,44.07,44.07,0,0,1-9.6,2.17,29.75,29.75,0,0,1-9.82-.14,11.63,11.63,0,0,1-4.55-2.14,8.33,8.33,0,0,1-2.85-4,.3.3,0,0,1,.2-.38A.3.3,0,0,1,.57,131.22Z"/><path class="cls-2" d="M214.58,63.55a71.61,71.61,0,0,1-27.89,10.39,122.29,122.29,0,0,1-14.91,1.53c-5,.22-10,.17-14.91.23-9.91,0-19.81.09-29.7.27q-7.42.14-14.84.35l-7.41.26-7.46.22c-9.91.25-19.77.37-29.13,2.28a62.08,62.08,0,0,0-13.46,4.18,61.39,61.39,0,0,0-12,7.31c-3.87,2.88-7.59,6.05-11.26,9.3s-7.26,6.61-10.83,10-7.06,6.88-10.49,10.43c-1.74,1.76-3.43,3.56-5.09,5.37-.84.91-1.65,1.83-2.44,2.77-.4.47-.78.94-1.15,1.43a5.58,5.58,0,0,0-.86,1.43l0,.11a.3.3,0,0,1-.36.2.28.28,0,0,1-.21-.31,5.18,5.18,0,0,1,.68-1.92q.45-.84.93-1.65c.66-1.07,1.34-2.12,2.05-3.16,1.4-2.07,2.9-4.07,4.4-6.06,3.05-4,6.21-7.81,9.52-11.55A186.17,186.17,0,0,1,39.15,85.84,74,74,0,0,1,45.4,81.3c1.13-.68,2.23-1.41,3.4-2s2.32-1.23,3.53-1.74a60.18,60.18,0,0,1,14.94-4.33A113.62,113.62,0,0,1,82.46,72c5-.12,10,0,15,0h7.4l7.44,0q7.45,0,14.9.1c9.92.12,19.84.36,29.74.63,5,.13,9.92.37,14.82.35a120.39,120.39,0,0,0,14.7-.94A72.24,72.24,0,0,0,214.26,63a.31.31,0,0,1,.41.11A.3.3,0,0,1,214.58,63.55Z"/><path class="cls-2" d="M428.47.59q-27.24,6.2-54.28,13.21c-18,4.6-36,9.45-53.84,14.74l-6.68,2L307,32.6c-4.43,1.41-8.88,2.75-13.27,4.24s-8.83,2.9-13.26,4.29L267.24,45.4C249.57,51.06,232,56.92,214.55,63.57h0a.31.31,0,0,1-.39-.17.31.31,0,0,1,.13-.37c4-2.35,8.16-4.58,12.29-6.82s8.43-4.05,12.69-6l3.19-1.47c1.06-.5,2.16-.9,3.24-1.35l6.5-2.65,6.53-2.58c2.18-.85,4.39-1.61,6.59-2.42,4.41-1.54,8.81-3.14,13.27-4.54s8.94-2.72,13.43-4,9-2.44,13.52-3.67l6.76-1.84,6.78-1.73c18.06-4.74,36.22-9,54.43-13,4.55-1,9.11-2,13.68-2.9s9.13-1.88,13.7-2.8Q414.59,2.42,428.36,0a.3.3,0,0,1,.34.25A.29.29,0,0,1,428.47.59Z"/><path class="cls-1" d="M426.49,94.59c-14.41,4-28.94,7.53-43.52,10.89s-29.26,6.25-44,8.89-29.57,4.95-44.53,6.51a217.83,217.83,0,0,1-22.58,1,154.93,154.93,0,0,1-22.64-1.55l-.66-.1-.36-.29a56.9,56.9,0,0,0-4.9-3.43A42.16,42.16,0,0,0,238,113.7a22.82,22.82,0,0,0-5.65-1.8,9.91,9.91,0,0,0-5.78.65.29.29,0,0,1-.4-.13.32.32,0,0,1,.09-.38,10.31,10.31,0,0,1,6.21-1.88,23.29,23.29,0,0,1,6.45,1,43.54,43.54,0,0,1,6,2.32,49.81,49.81,0,0,1,5.69,3.14l-1-.39c14.71.7,29.49-.49,44.28-1.5,7.39-.56,14.81-1.11,22.2-1.9s14.79-1.73,22.17-2.76c14.76-2.08,29.47-4.58,44.15-7.26s29.32-5.61,43.91-8.8a.3.3,0,0,1,.15.58Z"/><path class="cls-1" d="M426.64,62.5a76.61,76.61,0,0,1-7.87,7.94c-1.41,1.21-2.81,2.46-4.28,3.6l-2.19,1.75L410,77.45a134.71,134.71,0,0,1-19.22,11.62c-1.68.85-3.4,1.6-5.09,2.44l-2.54,1.23-2.6,1.11c-1.74.71-3.49,1.41-5.27,2s-3.62,1-5.44,1.5l-2.75.66c-.92.2-1.85.34-2.78.49-1.87.29-3.72.57-5.59.78a53.18,53.18,0,0,1-5.64.34c-1.89,0-3.77.06-5.66-.06a.32.32,0,0,1-.29-.33.3.3,0,0,1,.18-.26h0c1.75-.77,3.5-1.4,5.25-2l2.63-.88c.43-.15.87-.28,1.31-.42l1.3-.47c1.72-.65,3.45-1.23,5.18-1.8.86-.29,1.74-.53,2.6-.84l2.56-.93c1.72-.59,3.43-1.16,5.17-1.67s3.43-1.16,5.17-1.69l2.61-.77,2.57-.91c1.71-.61,3.43-1.2,5.11-1.89l5-2.17c1.68-.72,3.28-1.58,4.92-2.37s3.26-1.64,4.87-2.5L406,76.35l2.35-1.4a105.79,105.79,0,0,0,17.8-12.85l0,0a.29.29,0,0,1,.42,0A.3.3,0,0,1,426.64,62.5Z"/><path class="cls-1" d="M10.72,189.3a3.65,3.65,0,0,0,2.91,3,8.94,8.94,0,0,0,2.29.25,13.92,13.92,0,0,0,2.33-.2,13.39,13.39,0,0,0,4.32-1.57,17.68,17.68,0,0,0,3.6-2.91c2.21-2.28,4.33-4.87,6.38-7.42s4.12-5.2,6.15-7.8a59.37,59.37,0,0,0,5.39-8.07c.8-1.42,1.62-2.81,2.48-4.18.44-.67.87-1.4,1.32-2.09l1.38-2.09q1.41-2.06,2.88-4.08c1-1.32,2-2.65,3-4l6-8a.31.31,0,0,1,.55.23,41.48,41.48,0,0,1-2.91,9.84c-.63,1.58-1.35,3.12-2.09,4.63s-1.51,3-2.3,4.45-1.59,2.9-2.5,4.33S50,166.51,49,167.9a86.63,86.63,0,0,1-6.64,7.82,167.09,167.09,0,0,1-14.19,14.37,20,20,0,0,1-4.52,2.85,15.26,15.26,0,0,1-5.2,1.23,15.51,15.51,0,0,1-2.64-.07,9.91,9.91,0,0,1-2.61-.62A5.8,5.8,0,0,1,11,191.87a3.75,3.75,0,0,1-.88-2.57.29.29,0,0,1,.31-.28A.31.31,0,0,1,10.72,189.3Z"/><path class="cls-1" d="M40.71,208.24A7,7,0,0,0,43.53,212,9.06,9.06,0,0,0,56,210.43c2-2.3,3-5.42,3.8-8.6a91.16,91.16,0,0,1,2.9-9.82c2.36-6.46,5.49-12.51,8.25-18.57,1.41-3,2.58-6,3.8-9.23a43,43,0,0,1,4.83-9.53l.35-.49.52-.33q3.84-2.45,7.8-4.72c2.62-1.53,5.29-3,8-4.44,1.33-.74,2.69-1.43,4-2.14s2.72-1.39,4.09-2.06c2.75-1.35,5.52-2.65,8.38-3.81a.29.29,0,0,1,.39.16.3.3,0,0,1-.07.34c-2.27,2.09-4.63,4.05-7,6-1.19,1-2.39,1.91-3.6,2.83s-2.42,1.87-3.65,2.76c-2.45,1.81-4.91,3.61-7.41,5.33s-5,3.43-7.58,5.06l.86-.81a58.08,58.08,0,0,0-4.68,8.2c-1.44,3-3,6.12-4.62,9.1-3.19,6-6.5,11.77-9.18,17.79a87.69,87.69,0,0,0-3.44,9.3,39.75,39.75,0,0,1-2,4.86A16.38,16.38,0,0,1,57.69,212,11.46,11.46,0,0,1,47.6,215.2a10.55,10.55,0,0,1-4.73-2.4,7.81,7.81,0,0,1-2.75-4.44.3.3,0,0,1,.25-.35.31.31,0,0,1,.34.22Z"/><path class="cls-1" d="M138.62,152.35a17.45,17.45,0,0,1-10.77,11.43,21,21,0,0,1-3.2.84c-2.12.41-4.2.62-6.1,1.07a9.44,9.44,0,0,0-4.74,2.34,17.8,17.8,0,0,0-1.78,2.18l-1.81,2.54c-2.42,3.36-4.76,6.74-6.81,10.24a52.7,52.7,0,0,0-4.94,10.87c-1.23,3.67-2.09,7.87-4.24,12a19.5,19.5,0,0,1-4.38,5.73A15.59,15.59,0,0,1,83.41,215a14.28,14.28,0,0,1-3.61.43,7.74,7.74,0,0,1-2-.3,6,6,0,0,1-1-.39,4.17,4.17,0,0,1-1-.69,6.72,6.72,0,0,1-1.66-3.36,8.85,8.85,0,0,1-.06-3.36.3.3,0,0,1,.59,0h0A9.9,9.9,0,0,0,75.85,210a4.62,4.62,0,0,0,1.7,1.83c.94.41,2.9-.13,4.49-.89a12.91,12.91,0,0,0,4.11-3.15,16.9,16.9,0,0,0,2.66-4.53c1.45-3.4,2.34-7.43,4.1-11.54a69.43,69.43,0,0,1,6.44-11.34c2.41-3.55,5.05-6.87,7.71-10.11l2-2.41a20.24,20.24,0,0,1,2.38-2.47,12.72,12.72,0,0,1,6.53-2.68c2.2-.32,4.3-.32,6.3-.53a16.18,16.18,0,0,0,5.66-1.48,16.51,16.51,0,0,0,8.09-8.58.3.3,0,0,1,.57.19Z"/><path class="cls-1" d="M249.09,118.49a20.55,20.55,0,0,1-3.2,7,33.94,33.94,0,0,1-5.25,5.72,76.41,76.41,0,0,1-6.1,4.72c-2.09,1.46-4.19,2.89-6.34,4.28a73.86,73.86,0,0,1-13.8,7.15,104,104,0,0,1-15,4c-5,1-10.11,1.89-15.2,2.56a121,121,0,0,1-15.32,1c-5.11,0-10.2-.21-15.28-.59s-10.14-.92-15.2-1.76a.3.3,0,0,1-.25-.35.3.3,0,0,1,.24-.25c5.07-.88,10.13-1.4,15.18-1.86s10.08-.83,15.09-1.18,10-.64,15-.9,10-.64,14.91-1.37a99.4,99.4,0,0,0,14.53-3.08,70,70,0,0,0,13.55-6,114.4,114.4,0,0,0,12.8-7.85c3.93-3,7.48-6.69,9-11.48a.3.3,0,0,1,.37-.2A.31.31,0,0,1,249.09,118.49Z"/><path class="cls-2" d="M126,128.94A47.2,47.2,0,0,0,116,135.7c-3.05,2.63-6.16,5.31-9.05,8.06a50.53,50.53,0,0,0-7.66,9C97.08,156,95.13,159.5,93.15,163s-3.75,7.12-5.35,10.74-3.1,7.19-4.55,10.87-2.82,7.43-4.17,11.24-2.72,7.66-4.37,11.47a.31.31,0,0,1-.4.16.3.3,0,0,1-.19-.28,88.9,88.9,0,0,1,3.45-24.54,56.62,56.62,0,0,1,4.92-11.59c2.06-3.64,4.33-7.1,6.55-10.54s4.46-6.89,7-10.2a53.28,53.28,0,0,1,8.9-8.86c3.26-2.58,6.55-4.91,9.9-7.28a44.26,44.26,0,0,1,10.85-5.85.3.3,0,0,1,.22.56Z"/></g></g></svg>