<svg xmlns="http://www.w3.org/2000/svg" viewBox="0 0 342.04 181.38"><defs><style>.cls-1{fill:#f1eef6;}.cls-2{fill:#b2578e;}</style></defs><title>c</title><g id="Layer_2" data-name="Layer 2"><g id="hands"><path class="cls-1" d="M.41,100.58a60,60,0,0,0,15.23,3.79,137.19,137.19,0,0,0,15.73.86c5.27.08,10.55,0,15.83-.09s10.56-.23,15.85-.39,10.59-.4,15.86-.67,10.54-.38,15.81-.4h31.7a.3.3,0,0,1,.3.31.31.31,0,0,1-.21.29,104.16,104.16,0,0,1-15.66,3.6c-5.28.84-10.59,1.42-15.91,1.79s-10.64.47-16,.34-10.61-.36-15.91-.47-10.6-.23-15.91-.42-10.62-.49-15.93-.9a142.62,142.62,0,0,1-15.89-2A57.36,57.36,0,0,1,.16,101.13a.31.31,0,0,1-.13-.41A.3.3,0,0,1,.41,100.58Z"/><path class="cls-1" d="M106.15,134.23a43.41,43.41,0,0,1,7.48-18.76A60.83,60.83,0,0,1,128,101a98,98,0,0,1,17.78-10A169,169,0,0,1,164.91,84c6.5-1.89,13.05-3.56,19.6-5.15s13.12-2.84,19.69-4c3.28-.58,6.57-1.15,9.83-1.78s6.53-1.26,9.81-1.85c6.51-1.34,13-2.83,19.51-4.5h0a.3.3,0,0,1,.36.22.29.29,0,0,1-.14.34,115.58,115.58,0,0,1-18.65,8q-4.83,1.59-9.72,2.93c-3.25.92-6.53,1.67-9.8,2.49-13.09,3.14-26.36,4.75-39.24,7.92a164.41,164.41,0,0,0-18.92,5.87,94.21,94.21,0,0,0-17.57,8.92,58.61,58.61,0,0,0-14.56,13.13,43.8,43.8,0,0,0-8.38,17.78.29.29,0,0,1-.35.23A.3.3,0,0,1,106.15,134.23Z"/><path class="cls-1" d="M229.22,71.82c4.09-6.81,8.25-13.57,12.27-20.4L253.69,31c2-3.41,4-6.88,5.91-10.33s4.07-6.81,6.32-10.07l1.76-2.49a12.48,12.48,0,0,1,2.61-2.73,6.81,6.81,0,0,1,2.1-1.08A5.62,5.62,0,0,1,275,4.11a5.28,5.28,0,0,1,2.32,1,6.51,6.51,0,0,1,1.48,1.55,11.45,11.45,0,0,1,1.51,3.18l.85,2.88a13,13,0,0,1,.58,3.17c0,1,0,2,0,3a.31.31,0,0,1-.59.12c-.42-.93-.78-1.88-1.16-2.78a12.12,12.12,0,0,0-1.35-2.44l-1.59-2.56a8.92,8.92,0,0,0-1.51-1.92c-.54-.47-.95-.54-1.14-.48s-.37.17-.77.59a9.65,9.65,0,0,0-1.23,1.78L271,13.78q-2.94,5.19-6.38,10.06c-2.3,3.24-4.63,6.47-6.89,9.74l-6.79,9.79L244,53.07c-4.71,6.4-9.4,12.82-14.29,19.09a.3.3,0,0,1-.42,0A.29.29,0,0,1,229.22,71.82Z"/><path class="cls-1" d="M281.45,51.12a32.8,32.8,0,0,1-1.38,9.78,43.1,43.1,0,0,1-1.73,4.72A48.72,48.72,0,0,1,276,70.1c-.86,1.44-1.7,2.92-2.63,4.34A16.93,16.93,0,0,1,270,78.17a24.85,24.85,0,0,1-4.23,2.77,17.79,17.79,0,0,1-4.9,1.72.34.34,0,0,1-.39-.28.24.24,0,0,1,0-.19A29,29,0,0,1,263,77.76c.89-1.35,1.81-2.61,2.77-3.82a27.26,27.26,0,0,1,3.1-3.34,32.06,32.06,0,0,0,3.24-3.25,44.92,44.92,0,0,0,2.76-3.66,37.84,37.84,0,0,0,2.44-3.93A38.85,38.85,0,0,0,280.85,51a.3.3,0,0,1,.37-.21A.33.33,0,0,1,281.45,51.12Z"/><path class="cls-2" d="M239.48,87.43a31.25,31.25,0,0,0,3.18,6.71l3.85,6.47c.64,1.07,1.4,2.07,2.14,3.08A14.11,14.11,0,0,1,250.4,107a19.48,19.48,0,0,1,1.32,7.88.36.36,0,0,1-.37.34.33.33,0,0,1-.14,0h0a14.75,14.75,0,0,1-3.46-2.4,19,19,0,0,1-2.62-2.93,12.14,12.14,0,0,1-1.77-3.43c-.4-1.25-.75-2.51-1.18-3.73s-.83-2.44-1.23-3.66-.71-2.45-1.05-3.71a24.44,24.44,0,0,1-1-7.79.3.3,0,0,1,.33-.28A.32.32,0,0,1,239.48,87.43Z"/><path class="cls-1" d="M251.43,114.69c4.61-1,9.22-2.07,13.75-3.31,2.27-.58,4.53-1.2,6.72-1.91a44.36,44.36,0,0,0,6.27-2.42,25.73,25.73,0,0,0,5.29-3.81,24.27,24.27,0,0,1,3.06-2.25,26.58,26.58,0,0,1,3.39-1.67c2.26-.93,4.51-1.61,6.71-2.29s4.36-1.33,6.64-2.26h0a.31.31,0,0,1,.41.17.32.32,0,0,1,0,.27,13.94,13.94,0,0,1-2.26,3.09,26.54,26.54,0,0,1-2.83,2.49,64.52,64.52,0,0,1-6,3.91l-2.85,1.67c-.94.53-1.71,1-2.8,1.7a41,41,0,0,1-6.86,3.4,48.06,48.06,0,0,1-7.2,1.87c-2.4.42-4.76.73-7.13,1-4.75.45-9.48.84-14.23,1a.3.3,0,0,1-.07-.6Z"/><path class="cls-2" d="M340.84,78.17c-.08-.57,0-.83-.21-1.1a2,2,0,0,0-.65-.66,4.35,4.35,0,0,0-1.93-.66,17.18,17.18,0,0,0-4.46.11,44.82,44.82,0,0,0-4.55.83c-1.52.32-3,.7-4.55,1.11s-3,1-4.48,1.48a22.51,22.51,0,0,1-4.58,1.11,37.79,37.79,0,0,1-4.8.34,23.05,23.05,0,0,1-5.08-.45.34.34,0,0,1-.26-.41.32.32,0,0,1,.09-.17,20.38,20.38,0,0,1,4.14-3.06A29.49,29.49,0,0,1,314,74.57a18.84,18.84,0,0,1,4.75-1.09c1.63-.15,3.28-.24,4.91-.41s3.27-.28,4.92-.34a49.13,49.13,0,0,1,5,.13,18.44,18.44,0,0,1,5,1.09,5.74,5.74,0,0,1,2.28,1.54,3,3,0,0,1,.66,1.3,2.87,2.87,0,0,1-.09,1.28v.1a.3.3,0,0,1-.33.25A.31.31,0,0,1,340.84,78.17Z"/><path class="cls-1" d="M303.49,94.69a51.9,51.9,0,0,0,20.45-5.32,31.1,31.1,0,0,0,4.41-2.72,46.17,46.17,0,0,1,4.32-2.73c1.37-.76,2.82-1.68,4.26-2.61.72-.47,1.43-1,2.13-1.45a5.89,5.89,0,0,0,1.78-1.69l.06-.11a.32.32,0,0,1,.42-.11.25.25,0,0,1,.11.12,3,3,0,0,1,.25,1.73,7.64,7.64,0,0,1-.35,1.59,13.75,13.75,0,0,1-1.29,2.8,18.58,18.58,0,0,1-3.9,4.62,19.21,19.21,0,0,1-4.94,3c-1.79.75-3.63,1.36-5.45,2a50.62,50.62,0,0,1-5.53,1.47,49,49,0,0,1-5.63.72,41.93,41.93,0,0,1-11.15-.72.31.31,0,0,1-.24-.36.32.32,0,0,1,.28-.24Z"/><path class="cls-1" d="M340,48.52a4.76,4.76,0,0,1,1.89,2.84,6.64,6.64,0,0,1-.13,3.51,15.64,15.64,0,0,1-3.6,5.75A41.64,41.64,0,0,1,333.21,65c-1.71,1.29-3.45,2.46-5.17,3.69s-3.4,2.52-5.09,3.8a39.08,39.08,0,0,1-5.27,3.29,59,59,0,0,1-5.74,2.67,30,30,0,0,1-6.32,1.83.33.33,0,0,1-.31-.52,48.49,48.49,0,0,1,9.14-9c3.42-2.7,7.36-4.12,11-6.1,1.83-1,3.73-1.94,5.52-3a38.54,38.54,0,0,0,5.09-3.22,13.42,13.42,0,0,0,3.9-4.21,5.12,5.12,0,0,0,.61-2.65,3.92,3.92,0,0,0-1-2.58h0a.3.3,0,0,1,.38-.45Z"/><path class="cls-2" d="M303.29,61.21c2.65-2,5.37-3.91,8.15-5.76,1.4-.9,2.81-1.8,4.24-2.67s2.91-1.67,4.41-2.46l4.49-2.43a18.26,18.26,0,0,1,4.84-1.67c.84-.17,1.7-.29,2.56-.38a16.8,16.8,0,0,1,2.78-.07,8.86,8.86,0,0,1,3,.67A4.35,4.35,0,0,1,340,48.52a.33.33,0,0,1-.17.44.37.37,0,0,1-.18,0h0a4.7,4.7,0,0,0-2.25.18,14,14,0,0,0-1.95.8l-2,1-2.18,1a27.08,27.08,0,0,1-4.51,1.49c-1.56.38-3.14.75-4.67,1.28s-3.06,1.07-4.58,1.65-3.07,1.14-4.59,1.74l-9.24,3.61a.31.31,0,0,1-.4-.17A.3.3,0,0,1,303.29,61.21Z"/><path class="cls-2" d="M296.83,51.05a7.27,7.27,0,0,1,3.84,1.86,14.87,14.87,0,0,1,2.88,3.23,15.56,15.56,0,0,1,1.84,4.06,24.6,24.6,0,0,1,.71,4.29c.06,1.35.22,2.72.35,4.09a12.86,12.86,0,0,1-.22,4A23.27,23.27,0,0,1,305,76.48a16.6,16.6,0,0,1-2.12,3.8.36.36,0,0,1-.51.06.31.31,0,0,1-.09-.11,16.51,16.51,0,0,1-1.51-4.08,23.3,23.3,0,0,1-.56-4,15.36,15.36,0,0,1,.27-3.86c.27-1.26.58-2.53.78-3.81a20.83,20.83,0,0,0,.16-3.58,12,12,0,0,0-.6-3.43,13,13,0,0,0-1.58-3.27,6.72,6.72,0,0,0-2.58-2.55h0a.3.3,0,0,1-.15-.4A.31.31,0,0,1,296.83,51.05Z"/><path class="cls-1" d="M334.71,27.16a35.52,35.52,0,0,1-6.63,8.29c-1.25,1.23-2.48,2.43-3.64,3.65s-2.27,2.45-3.38,3.76-2.17,2.71-3.33,4.1a18.55,18.55,0,0,1-4.06,3.61,42.67,42.67,0,0,1-4.54,2.56c-1.55.76-3.09,1.48-4.86,2.2h0a.34.34,0,0,1-.44-.18.3.3,0,0,1,0-.21,15,15,0,0,1,2.56-5,34.5,34.5,0,0,1,3.51-4,35.73,35.73,0,0,1,3.74-3.24c1.34-1,2.71-2.06,4-3.21s2.71-2.29,4.15-3.37,2.92-2,4.36-3a42.74,42.74,0,0,0,8-6.3.3.3,0,0,1,.43,0A.31.31,0,0,1,334.71,27.16Z"/><path class="cls-2" d="M334.18,26.9a7.94,7.94,0,0,0-.05-3.15,3.11,3.11,0,0,0-1.39-2.17,6.39,6.39,0,0,0-2.75-.2,16.19,16.19,0,0,0-3,.6A32.94,32.94,0,0,0,321,24.31a42.07,42.07,0,0,0-5.49,3.24C312,30,309.27,33.3,305.4,35.82a32,32,0,0,1-6.2,3.35,40,40,0,0,1-6.57,2.07h0a.32.32,0,0,1-.38-.25.36.36,0,0,1,.06-.25A38.29,38.29,0,0,1,297,35.55l4.69-4.44A38.19,38.19,0,0,1,307,26.93c2-1.25,4-2.4,6.1-3.49a46.7,46.7,0,0,1,6.44-2.82A36.56,36.56,0,0,1,326.39,19,18.11,18.11,0,0,1,330,19a14,14,0,0,1,1.82.27,5,5,0,0,1,1.93.8,3.81,3.81,0,0,1,1.26,1.7,5.84,5.84,0,0,1,.39,1.87,9,9,0,0,1-.65,3.48.3.3,0,0,1-.39.17.31.31,0,0,1-.18-.34Z"/><path class="cls-1" d="M307.89,4.35a5.09,5.09,0,0,1,1.23,2.8,16.24,16.24,0,0,1,.17,3A20.47,20.47,0,0,1,308,16c-.71,1.84-1.34,3.53-2.17,5.37s-1.79,3.47-2.7,5.12-1.69,3.3-2.45,5A34,34,0,0,1,298,36.27q-1.55,2.31-3.37,4.53a30.52,30.52,0,0,1-4.16,4.2.34.34,0,0,1-.47,0,.38.38,0,0,1-.07-.22,27.89,27.89,0,0,1,.92-5.87,39.39,39.39,0,0,1,1.88-5.45,24.51,24.51,0,0,1,2.86-5c1.15-1.55,2.4-3.07,3.53-4.57s2.24-3,3.24-4.47,2-3.13,2.93-4.68a18.28,18.28,0,0,0,2.19-4.84,15.13,15.13,0,0,0,.39-2.64,4.26,4.26,0,0,0-.43-2.5h0a.31.31,0,0,1,.11-.41A.3.3,0,0,1,307.89,4.35Z"/><path class="cls-2" d="M281.22,18.82a31.65,31.65,0,0,1,4.77-7l1.36-1.58c.43-.51.85-1,1.28-1.55.88-1,1.77-2.12,2.76-3.2a35.58,35.58,0,0,1,3.25-3.25,9.64,9.64,0,0,1,4.53-2.1,9.41,9.41,0,0,1,5.19.52,7.51,7.51,0,0,1,2.21,1.41,4.15,4.15,0,0,1,1.32,2.27.35.35,0,0,1-.3.39.28.28,0,0,1-.13,0h0a5.64,5.64,0,0,0-2-.14,9.3,9.3,0,0,0-1.74.28,14.93,14.93,0,0,0-2.95,1.07c-.91.44-1.86.87-2.92,1.32a15.66,15.66,0,0,0-3.24,1.81c-1,.77-2.1,1.63-3.19,2.5-.56.42-1.13.86-1.7,1.27L288,14a43.34,43.34,0,0,0-6.32,5.13h0a.31.31,0,0,1-.43,0A.3.3,0,0,1,281.22,18.82Z"/><path class="cls-2" d="M260.59,56.56a65.68,65.68,0,0,0,6.54-8.79c1-1.53,1.88-3.1,2.75-4.69s1.74-3.19,2.55-4.81,1.47-3.35,2.17-5a27.28,27.28,0,0,1,2.54-4.75,25.32,25.32,0,0,0,2.19-4.25c.65-1.56,1.17-3.3,1.84-5.21a.33.33,0,0,1,.42-.2.33.33,0,0,1,.17.14,13.11,13.11,0,0,1,1.77,5.84,14.51,14.51,0,0,1-1,6.31c-1.44,3.6-3.86,6.5-6,9.62-1.08,1.54-2.19,3.07-3.35,4.56s-2.41,2.92-3.7,4.31A50,50,0,0,1,261,57a.3.3,0,0,1-.42-.08A.3.3,0,0,1,260.59,56.56Z"/><path class="cls-1" d="M6.81,179.38a270.16,270.16,0,0,0,30.39-1c5-.41,10.08-1,15.1-1.57s10.05-1.27,15.06-2,10-1.63,14.91-2.64,9.81-2,14.68-3,9.7-2.23,14.47-3.68,9.5-3.16,14.25-5.1a.31.31,0,0,1,.32.51,59,59,0,0,1-13,8.51,88.5,88.5,0,0,1-14.56,5.58A100.48,100.48,0,0,1,83.23,178c-5.11.63-10.22,1.06-15.3,1.54s-10.17.89-15.27,1.22-10.21.5-15.31.59A241.86,241.86,0,0,1,6.77,180a.3.3,0,0,1,0-.6Z"/><path class="cls-2" d="M118.46,152.36c.52,3,2.82,5.27,5.37,6.73a23.75,23.75,0,0,0,8.5,2.69c6,.7,12-.45,17.9-2s11.81-3.47,17.63-5.44,11.61-4.06,17.33-6.3,11.35-4.73,16.9-7.34L218.78,133c2.8-1.26,5.58-2.58,8.37-3.87s5.57-2.59,8.26-3.94c5.34-2.75,10.48-5.93,14.06-11a.3.3,0,0,1,.42-.07.28.28,0,0,1,.11.34,23.58,23.58,0,0,1-5.07,8.12,43.75,43.75,0,0,1-7.34,6.21c-2.6,1.86-5.31,3.4-8,5s-5.41,3.1-8.17,4.56a170.74,170.74,0,0,1-17,7.81c-5.81,2.27-11.69,4.35-17.58,6.38S175,156.42,169,158.14s-12,3.21-18.12,4.55-12.55,2.06-18.87.91a25,25,0,0,1-8.89-3.43,14.44,14.44,0,0,1-3.51-3.29,9.12,9.12,0,0,1-1.79-4.44.3.3,0,0,1,.6-.08Z"/></g></g></svg>